<svg id="cart_icn" xmlns="http://www.w3.org/2000/svg" width="24" height="24" viewBox="0 0 24 24">
  <rect id="bg" width="24" height="24" fill="none"/>
  <path id="cart_icn-2" data-name="cart_icn" d="M1.852,24A1.819,1.819,0,0,1,0,22.222a1.514,1.514,0,0,1,.009-.172L1.269,9.606A1.819,1.819,0,0,1,3.113,8H5V5.444A5.234,5.234,0,0,1,10,0a5.212,5.212,0,0,1,5,5.222l0,.222V8h1.886a1.819,1.819,0,0,1,1.844,1.606l1.26,12.444a1.718,1.718,0,0,1-.39,1.273,1.859,1.859,0,0,1-1.274.669c-.059.005-.12.008-.179.008ZM2,22H18L16.763,10H3.238ZM13,8V5.444A3.248,3.248,0,0,0,10,2,3.219,3.219,0,0,0,7,5.247l0,.2V8Z" transform="translate(2)" fill="#1b2437"/>
</svg>
