<svg xmlns="http://www.w3.org/2000/svg" width="145" height="32" viewBox="0 0 145 32">
  <g id="clay_shop_logo" transform="translate(0 -1)">
    <path id="logo" d="M11,23.375a10.613,10.613,0,0,1-7.778-3.423A11.989,11.989,0,0,1,0,11.687,11.989,11.989,0,0,1,3.222,3.423,10.613,10.613,0,0,1,11,0H22V12.265h-.013C21.7,18.494,16.875,23.375,11,23.375Zm.917-11.11v9.114a9.442,9.442,0,0,0,8.234-9.114ZM11,1.948c-5.054,0-9.167,4.369-9.167,9.739a9.5,9.5,0,0,0,8.25,9.692V10.317H20.166V1.948Z" transform="translate(0 6.375)" fill="#1b2437"/>
    <text id="Clay_Shop" data-name="Clay Shop" transform="translate(38 27)" fill="#1b2437" font-size="24" font-family="PlayfairDisplay-Regular, Playfair Display"><tspan x="0" y="0">Clay Shop</tspan></text>
  </g>
</svg>
